<?xml version="1.0" encoding="utf-8" ?><svg xmlns="http://www.w3.org/2000/svg" xmlns:xlink="http://www.w3.org/1999/xlink" width="1024" height="1024" viewBox="0 0 1024 1024"><path fill="white" d="M0 0L1024 0L1024 1024L0 1024L0 0Z"/><path fill="#3F51B5" d="M455.58 409.814C457.861 410.933 465.765 424.611 467.518 427.466C452.982 442.279 437.421 456.881 423.44 471.971C428.722 479.88 432.491 488.7 434.555 497.984C439.249 519.598 433.417 537.239 421.801 555.33C426.409 560.472 431.716 565.149 436.619 570.06C448.425 581.939 460.365 593.684 472.437 605.293C498.83 589.741 526.428 588.318 552.454 605.783C569.111 589.078 586.425 572.28 602.871 555.482C584.374 527.435 583.328 499.978 601.72 471.65C587.902 457.323 571.683 441.665 557.363 427.566C561.434 422.5 565.827 415.284 569.43 409.684C584.992 425.355 600.765 440.816 616.744 456.063C621.568 452.651 626.755 449.783 632.21 447.513C649.46 440.353 668.871 440.472 686.032 447.844C703.225 455.208 716.761 469.139 723.627 486.536C730.378 503.669 730.177 522.76 723.065 539.746C715.36 557.824 701.688 570.474 683.627 577.775C678.708 579.694 674.705 580.88 669.44 581.719C651.605 584.662 633.333 580.368 618.676 569.789C602.168 587.003 584.766 603.169 568.175 620.356C573.677 630.736 578.325 638.049 580.676 650.091C584.081 667.536 580.369 687.566 570.533 702.327C560.134 717.902 543.916 728.65 525.519 732.158C507.247 735.858 488.256 731.968 472.911 721.38C457.762 711 447.323 695.059 443.864 677.023C439.817 655.162 445.02 638.066 457.276 620.233C452.137 614.519 444.635 607.712 438.952 602.136L406.062 569.903C397.76 575.478 389.812 579.251 379.931 581.321C361.604 585.041 342.55 581.328 326.961 570.999C312.143 561.297 300.739 544.082 297.241 526.74C293.455 508.283 297.179 489.077 307.589 473.372C318.416 457.557 335.125 446.736 353.985 443.326C373.732 439.708 392.203 445.015 408.424 456.349C423.184 441.267 440.365 424.582 455.58 409.814Z"/><path fill="#07A4E3" d="M506.897 291.202C515.578 290.23 525.318 291.292 533.616 293.956C551.163 299.555 565.76 311.906 574.188 328.283C582.342 344.256 584.398 362.712 578.904 379.888C574.37 394.063 567.053 402.049 558.846 413.926C552.602 423.076 546.439 432.28 540.355 441.538C534.684 450.317 526.894 467.626 518.106 472.163C509.823 473.886 503.565 471.714 499.088 464.367C492.723 453.921 486.358 443.606 479.503 433.468L462.519 408.639C452.581 394.144 445.761 385.285 443.949 367.239C439.996 327.858 467.646 294.84 506.897 291.202Z"/><path fill="white" d="M509.829 332.167C525.51 330.643 539.452 342.134 540.951 357.818C542.45 373.502 530.938 387.425 515.252 388.901C499.6 390.372 485.713 378.891 484.218 363.241C482.722 347.592 494.182 333.687 509.829 332.167Z"/></svg>